<?xml version="1.0" standalone="no"?>
<!DOCTYPE svg PUBLIC "-//W3C//DTD SVG 20010904//EN"
 "http://www.w3.org/TR/2001/REC-SVG-20010904/DTD/svg10.dtd">
<svg version="1.0" xmlns="http://www.w3.org/2000/svg"
 width="615.000000pt" height="549.000000pt" viewBox="0 0 615.000000 549.000000"
 preserveAspectRatio="xMidYMid meet">
<metadata>
Created by potrace 1.15, written by Peter Selinger 2001-2017
</metadata>
<g transform="translate(0.000000,549.000000) scale(0.100000,-0.100000)"
fill="#bbbbbb" stroke="none">
<path d="M4663 5079 c-131 -12 -259 -65 -364 -149 -135 -109 -222 -259 -258
-446 -27 -147 4 -332 80 -473 40 -73 110 -162 153 -195 l36 -27 2 -297 3 -297
365 0 365 0 3 136 3 136 88 6 c103 7 158 28 215 84 59 57 78 110 85 233 l6
105 60 3 c49 3 65 8 88 29 47 46 39 78 -61 254 -86 150 -89 156 -95 234 -21
264 -165 484 -390 593 -125 62 -247 84 -384 71z m195 -176 c28 -36 32 -37 83
-35 45 2 56 -1 67 -19 8 -12 11 -32 7 -48 -8 -38 10 -80 40 -91 21 -8 25 -16
25 -50 0 -34 -4 -42 -25 -50 -30 -11 -57 -60 -44 -81 14 -22 11 -43 -10 -66
-16 -17 -28 -19 -69 -15 -46 4 -51 2 -68 -24 -23 -37 -33 -44 -62 -44 -15 0
-29 10 -40 30 -21 37 -59 54 -93 42 -17 -7 -31 -5 -51 6 -26 15 -27 19 -22 68
6 50 6 52 -30 79 -31 23 -37 34 -34 59 2 21 10 34 25 41 28 12 45 51 41 97 -3
52 17 71 65 65 47 -6 85 6 94 30 20 56 59 58 101 6z m-297 -468 c24 -40 47
-49 96 -40 53 10 75 -15 67 -76 -7 -49 3 -67 51 -94 29 -17 22 -64 -15 -93
-38 -30 -50 -58 -39 -95 6 -21 3 -33 -14 -53 -20 -23 -25 -24 -51 -14 -38 14
-81 -3 -99 -39 -8 -18 -21 -27 -42 -29 -25 -2 -33 3 -49 33 -22 40 -56 53 -97
38 -24 -9 -31 -7 -55 18 -22 23 -25 32 -16 41 16 16 15 60 -1 82 -7 9 -24 22
-37 29 -37 18 -38 59 -3 82 46 30 54 46 48 94 -4 36 -1 49 16 67 17 18 25 20
48 11 41 -15 76 -2 100 38 28 48 64 48 92 0z"/>
<path d="M4738 4720 c-26 -27 -29 -35 -23 -67 13 -72 49 -98 121 -86 37 6 64
46 64 96 0 83 -100 118 -162 57z"/>
<path d="M4464 4261 c-44 -27 -59 -73 -38 -118 17 -35 58 -63 93 -63 30 0 91
63 91 93 0 41 -20 75 -55 92 -42 19 -53 19 -91 -4z"/>
<path d="M1723 5053 c-7 -2 -13 -19 -13 -38 0 -18 -6 -38 -14 -44 -10 -8 -138
-11 -455 -11 -296 1 -447 -3 -461 -10 -13 -7 -20 -21 -20 -40 0 -33 10 -42 60
-50 l35 -5 3 -538 2 -537 -28 0 c-37 0 -72 -26 -72 -53 1 -53 -12 -52 425 -55
312 -2 405 -5 405 -15 0 -7 -88 -100 -195 -207 -164 -164 -195 -199 -195 -224
0 -29 23 -55 49 -56 8 0 112 97 232 216 152 152 218 211 222 201 3 -9 6 -118
7 -243 0 -149 4 -232 11 -241 7 -7 22 -13 34 -13 46 0 50 17 55 272 l5 239
195 -196 c218 -220 241 -239 270 -230 25 8 43 40 35 64 -3 10 -93 108 -200
217 -107 109 -195 202 -195 206 0 4 177 8 393 8 215 0 402 3 414 6 12 4 23 16
27 32 7 34 -32 72 -75 72 l-29 0 0 529 c0 392 3 532 12 537 6 4 25 10 42 13
19 4 36 17 45 33 14 24 14 29 -3 47 -19 20 -29 21 -475 23 l-456 3 -3 35 c-2
19 -8 41 -14 47 -10 13 -51 16 -75 6z m765 -750 l2 -473 -735 0 -735 0 0 468
c0 258 3 472 6 475 4 4 334 6 733 4 l726 -2 3 -472z"/>
<path d="M1640 4651 c-101 -39 -177 -108 -221 -200 -19 -38 -23 -64 -23 -146
-1 -94 1 -104 32 -165 42 -80 53 -93 122 -139 75 -50 119 -63 207 -63 92 1
162 23 213 69 l25 23 -132 132 -133 133 -2 185 c-3 210 -1 205 -88 171z"/>
<path d="M1787 4648 c-7 -29 -7 -287 0 -305 4 -10 42 -13 170 -13 l165 0 -6
44 c-20 130 -134 250 -269 284 -58 15 -54 16 -60 -10z"/>
<path d="M1840 4268 c0 -7 43 -55 95 -107 92 -91 95 -94 114 -77 29 27 60 99
63 148 l3 43 -137 3 c-107 2 -138 0 -138 -10z"/>
<path d="M516 3181 c-5 -8 24 -51 124 -183 27 -36 50 -72 50 -78 0 -6 -20 -40
-45 -75 -54 -75 -120 -212 -146 -304 -35 -121 -52 -277 -39 -356 33 -209 75
-320 167 -447 52 -72 192 -198 273 -246 103 -62 255 -110 381 -122 113 -11
238 -3 240 14 3 32 -4 247 -10 285 l-6 44 -115 2 c-250 4 -422 103 -520 300
-49 98 -64 173 -57 290 7 129 65 295 102 295 8 0 43 -42 79 -92 81 -114 92
-128 100 -128 9 0 7 66 -4 129 -5 31 -14 88 -19 126 -50 351 -48 343 -87 360
-56 25 -184 78 -299 125 -11 4 -36 15 -55 23 -89 38 -110 45 -114 38z"/>
<path d="M5393 2922 c-68 -66 -123 -121 -123 -124 0 -3 24 -30 53 -59 130
-131 185 -269 175 -440 -12 -196 -123 -365 -305 -466 -123 -68 -120 -70 -115
102 3 80 1 145 -4 145 -5 0 -18 -17 -30 -38 -11 -20 -72 -120 -134 -222 -62
-102 -123 -201 -134 -221 l-20 -35 31 -55 c17 -30 56 -103 88 -164 32 -60 70
-132 85 -160 15 -27 33 -61 40 -74 11 -22 13 -23 23 -6 5 10 12 78 15 152 3
90 9 139 18 147 7 7 43 21 79 30 59 15 96 29 185 69 79 37 216 139 288 216 92
97 185 265 212 381 7 30 16 68 21 84 5 16 9 77 9 135 0 252 -87 464 -269 653
l-66 69 -122 -119z"/>
<path d="M2035 2123 c-27 -7 -61 -39 -74 -71 -8 -19 -10 -231 -9 -702 l3 -675
1052 -2 c578 -2 1059 0 1067 3 14 6 16 75 16 677 0 498 -3 679 -12 704 -9 23
-24 39 -53 53 -40 20 -62 20 -1006 19 -530 -1 -973 -3 -984 -6z m1865 -202
c13 -25 12 -1018 -2 -1043 -8 -17 -60 -18 -878 -18 -849 0 -870 0 -880 19 -16
31 -14 1048 3 1054 6 3 402 6 879 6 847 1 868 1 878 -18z"/>
<path d="M2913 1831 c-105 -27 -233 -127 -280 -218 -106 -203 -45 -454 141
-577 285 -189 662 -3 683 338 12 183 -85 346 -253 427 -57 27 -79 32 -163 35
-53 2 -110 0 -128 -5z m7 -87 c0 -3 -14 -26 -31 -50 -37 -55 -84 -156 -93
-203 -3 -19 -11 -40 -17 -48 -15 -17 -119 -18 -120 0 -8 92 85 236 186 286 39
20 75 27 75 15z m276 -14 c95 -54 184 -182 184 -264 l0 -37 -57 3 -57 3 -14
50 c-27 95 -54 153 -97 210 -19 25 -35 47 -35 50 0 12 42 3 76 -15z m-116 -38
c0 -5 8 -17 19 -28 29 -32 79 -145 83 -189 l3 -40 -59 -3 c-41 -2 -62 1 -67
10 -10 15 -12 242 -2 251 9 10 23 9 23 -1z m-90 -113 c0 -140 -4 -149 -75
-149 l-55 0 0 36 c0 59 85 224 116 224 11 0 14 -21 14 -111z m-213 -217 c6 -4
15 -21 18 -37 19 -82 53 -159 92 -212 63 -85 58 -91 -34 -42 -113 60 -202 192
-194 287 1 13 97 17 118 4z m210 -124 c2 -85 -1 -128 -8 -128 -39 0 -128 189
-120 253 1 4 29 7 64 5 l62 -3 2 -127z m195 92 c-2 -38 -7 -51 -40 -120 -26
-53 -75 -113 -85 -104 -9 10 -9 249 0 258 4 4 34 6 68 4 l60 -3 -3 -35z m200
0 c-5 -52 -56 -150 -99 -193 -40 -38 -151 -99 -166 -90 -4 2 5 21 21 41 44 57
79 121 97 182 32 106 28 101 93 98 l57 -3 -3 -35z"/>
<path d="M1572 537 c-17 -20 4 -107 34 -138 14 -15 44 -32 67 -38 31 -8 408
-11 1367 -9 1275 3 1326 4 1363 22 48 24 69 63 65 124 l-3 47 -625 0 -624 0
-6 -25 c-8 -33 -31 -38 -197 -39 -148 -1 -173 2 -173 24 0 8 -7 21 -16 29 -14
14 -84 16 -628 16 -479 0 -616 -3 -624 -13z"/>
</g>
</svg>
